<svg xmlns="http://www.w3.org/2000/svg" width="137.6" height="96.165" viewBox="0 0 137.6 96.165">
  <g id="travel-india-logo" transform="translate(-55 -114)">
    <path id="Path_108" data-name="Path 108" d="M58.177,258.353c0,6.743,3.777,9.038,9.179,9.038h4.06v-6.743h-2.86c-1.765,0-2.436-.635-2.436-2.189V248.01h5.225v-6.6h-5.19v-6.355H58.177v6.355H55v6.637h3.177v10.309Zm23.088-3.036c0-4.483,2.189-5.79,5.966-5.79H89.42V241.09a9.672,9.672,0,0,0-8.155,4.625v-4.307H73.287v26.018h7.978V255.317Zm7.837-.953c0,8.19,5.084,13.415,11.438,13.415a9.09,9.09,0,0,0,8.049-4.06v3.672h7.978V241.408H108.59v3.672a9.069,9.069,0,0,0-8.014-4.06c-6.39,0-11.473,5.119-11.473,13.345Zm19.487.035c0,4.166-2.648,6.425-5.684,6.425-3,0-5.684-2.33-5.684-6.5s2.718-6.39,5.684-6.39c3.036.035,5.684,2.33,5.684,6.46Zm8.72-12.991,9.214,26.018h9.85l9.214-26.018h-8.473l-5.648,18.569-5.648-18.569Zm40.563,6c2.648,0,4.907,1.624,4.907,4.483h-9.991a4.953,4.953,0,0,1,5.084-4.483Zm12.462,11.368h-8.473a4.2,4.2,0,0,1-4.166,2.506c-2.577,0-4.66-1.589-4.942-4.978h18.04a17.554,17.554,0,0,0,.141-2.33c0-7.908-5.366-12.956-12.956-12.956-7.731,0-13.133,5.119-13.133,13.38s5.507,13.38,13.133,13.38c6.5,0,11.085-3.919,12.356-9Zm2.259,8.614h7.978V232.9h-7.978v34.491Z" transform="translate(0 -76.925)" fill="#404041"/>
    <path id="Path_109" data-name="Path 109" d="M112.261,337.5H55v11.05a6.222,6.222,0,0,0,6.213,6.213h57.261v-11.05a6.222,6.222,0,0,0-6.213-6.213Z" transform="translate(0 -144.598)" fill="#404041" fill-rule="evenodd"/>
    <path id="Path_110" data-name="Path 110" d="M74.824,349.006v7.873H73.8v-7.873Zm4.236,1.589a2.507,2.507,0,0,1,1.836.671,2.646,2.646,0,0,1,.706,1.977v3.636H80.578v-3.495a1.947,1.947,0,0,0-.459-1.412,1.729,1.729,0,0,0-1.271-.494,1.813,1.813,0,0,0-1.306.494,2.145,2.145,0,0,0-.494,1.483v3.424H76.024V350.7h1.024v.883a2.326,2.326,0,0,1,.812-.741,2.815,2.815,0,0,1,1.2-.247Zm3.283,3.177a3.491,3.491,0,0,1,.388-1.659,2.637,2.637,0,0,1,1.059-1.094,3.129,3.129,0,0,1,1.518-.388,2.89,2.89,0,0,1,1.342.318,2.316,2.316,0,0,1,.953.883v-3.283h1.024v8.331H87.6v-1.165a2.579,2.579,0,0,1-2.33,1.271,2.61,2.61,0,0,1-1.483-.424,2.726,2.726,0,0,1-1.059-1.13,3.6,3.6,0,0,1-.388-1.659Zm5.26,0a2.77,2.77,0,0,0-.282-1.236,2.1,2.1,0,0,0-2.895-.812,1.962,1.962,0,0,0-.741.777,2.661,2.661,0,0,0-.282,1.236,2.769,2.769,0,0,0,.282,1.236,2.058,2.058,0,0,0,.741.812,2.08,2.08,0,0,0,2.895-.812,2.512,2.512,0,0,0,.282-1.2Zm2.789-4.06a.641.641,0,0,1-.494-.212.706.706,0,1,1,.988,0,.763.763,0,0,1-.494.212Zm.494.988v6.178H89.863V350.7Zm.847,3.071a3.491,3.491,0,0,1,.388-1.659,2.446,2.446,0,0,1,1.059-1.094,3.1,3.1,0,0,1,1.483-.388,2.625,2.625,0,0,1,1.412.353,2.349,2.349,0,0,1,.883.883v-1.13h1.024v6.178H96.959v-1.165a2.218,2.218,0,0,1-.918.883,2.9,2.9,0,0,1-2.895-.071,2.971,2.971,0,0,1-1.059-1.13,3.584,3.584,0,0,1-.353-1.659Zm5.225,0a2.77,2.77,0,0,0-.282-1.236,2.1,2.1,0,0,0-2.895-.812,1.962,1.962,0,0,0-.741.777,2.661,2.661,0,0,0-.282,1.236,2.769,2.769,0,0,0,.282,1.236,2.058,2.058,0,0,0,.741.812,2.08,2.08,0,0,0,2.895-.812,2.512,2.512,0,0,0,.282-1.2Zm2.577,3.177a.641.641,0,0,1-.494-.212.682.682,0,1,1,.494.212Zm1.13-3.177a3.491,3.491,0,0,1,.388-1.659,2.446,2.446,0,0,1,1.059-1.094,3.268,3.268,0,0,1,1.553-.388,2.884,2.884,0,0,1,1.871.565,2.679,2.679,0,0,1,.988,1.518h-1.094a1.593,1.593,0,0,0-.6-.883,1.937,1.937,0,0,0-1.13-.318,1.811,1.811,0,0,0-1.412.6,2.5,2.5,0,0,0-.53,1.695,2.6,2.6,0,0,0,.53,1.73,1.748,1.748,0,0,0,1.412.6,1.937,1.937,0,0,0,1.13-.318,1.61,1.61,0,0,0,.635-.918h1.094a2.8,2.8,0,0,1-.988,1.518,2.95,2.95,0,0,1-1.871.565,3.166,3.166,0,0,1-1.553-.388,2.531,2.531,0,0,1-1.059-1.13,3.176,3.176,0,0,1-.424-1.695Zm9.426,3.213a3.519,3.519,0,0,1-1.589-.388,2.6,2.6,0,0,1-1.094-1.13,3.338,3.338,0,0,1-.388-1.695,3.135,3.135,0,0,1,.424-1.659,2.9,2.9,0,0,1,1.13-1.13,3.444,3.444,0,0,1,3.177,0,3.051,3.051,0,0,1,1.13,1.094,3.6,3.6,0,0,1,0,3.389,3.15,3.15,0,0,1-1.13,1.13,4.065,4.065,0,0,1-1.659.388Zm0-.918a2.089,2.089,0,0,0,1.024-.247,1.832,1.832,0,0,0,.777-.777,2.418,2.418,0,0,0,.282-1.271,2.813,2.813,0,0,0-.282-1.271,2.049,2.049,0,0,0-.777-.777,2.089,2.089,0,0,0-1.024-.247,2,2,0,0,0-1.024.247,1.757,1.757,0,0,0-.741.777,3,3,0,0,0,0,2.542,1.757,1.757,0,0,0,.741.777,2,2,0,0,0,1.024.247Zm11.438-5.472a2.813,2.813,0,0,1,1.271.282,2.127,2.127,0,0,1,.883.883,3.025,3.025,0,0,1,.318,1.447v3.636h-1.024v-3.5a1.947,1.947,0,0,0-.459-1.412,1.647,1.647,0,0,0-1.236-.494,1.626,1.626,0,0,0-1.271.53,2.133,2.133,0,0,0-.459,1.483v3.424h-1.024v-3.495a1.947,1.947,0,0,0-.459-1.412,1.647,1.647,0,0,0-1.236-.494,1.626,1.626,0,0,0-1.271.53,2.133,2.133,0,0,0-.459,1.483v3.424h-1.024v-6.178H115.1v.883a2.058,2.058,0,0,1,.812-.741,2.412,2.412,0,0,1,1.13-.247,2.5,2.5,0,0,1,1.377.353,2.094,2.094,0,0,1,.883,1.024,2.187,2.187,0,0,1,.847-1.024,2.4,2.4,0,0,1,1.377-.388Z" transform="translate(-12.163 -151.585)" fill="#fff"/>
    <path id="Path_111" data-name="Path 111" d="M419.045,186.438a3.168,3.168,0,0,0-.353-2.189l-.565-.988.318-.318a.215.215,0,0,0,0-.282l-.459-.494a.184.184,0,0,0-.282,0l-.141.141-.635-1.13.318-.318a.215.215,0,0,0,0-.282l-.459-.494a.215.215,0,0,0-.282,0l-.141.141-.635-1.094,1.8-1.518a3.387,3.387,0,0,0,.953-1.553l.212-.777a.527.527,0,0,0-.6-.671l-.777.141a3.229,3.229,0,0,0-1.624.812c-.424.388-1.024.953-1.695,1.659l-1.024-.706.141-.141a.215.215,0,0,0,0-.282l-.459-.494a.215.215,0,0,0-.282,0l-.318.318L411,175.176l.141-.141a.215.215,0,0,0,0-.282l-.459-.494a.184.184,0,0,0-.282,0l-.318.318-.953-.635a3.312,3.312,0,0,0-2.154-.565.283.283,0,0,0-.177.459l5.225,5.331c-1.165,1.13-2.33,2.33-3.318,3.318l-2.083-1.2c-.353-.247-1.094-.071-1.518.035l2.259,2.471-.212.212a1.641,1.641,0,0,0-.494,1.271c.035.353,0,.318.071.388s.035.071.459.106a1.688,1.688,0,0,0,1.2-.424l.212-.176,2.224,2.436c.141-.424.388-1.13.177-1.518l-.989-2.153,3.6-3.036,4.836,5.684c.282.177.565.106.6-.141Z" transform="translate(-226.504 -38.406)" fill="#ff7201"/>
    <path id="Path_112" data-name="Path 112" d="M123.159,114.988l-.177-.459a9.6,9.6,0,0,1,1.8-.459A5.793,5.793,0,0,1,125.6,114l.035.459a5.268,5.268,0,0,0-.741.071,9.6,9.6,0,0,0-1.73.459Zm7.025.212a10.343,10.343,0,0,0-2.436-.635l.071-.459a11.284,11.284,0,0,1,2.542.671l-.177.424Zm-10.767,2.365-.353-.318a10.078,10.078,0,0,1,1.977-1.73l.247.388a10.34,10.34,0,0,0-1.871,1.659Zm14.757,0a12.381,12.381,0,0,0-2.083-1.483l.247-.424a14.852,14.852,0,0,1,2.153,1.518l-.318.388Zm-17.087,4.025-.459-.177a14.663,14.663,0,0,1,1.13-2.365l.424.247a15.281,15.281,0,0,0-1.094,2.295Zm20.052-.459a11.315,11.315,0,0,0-1.483-2.083l.353-.318a12.544,12.544,0,0,1,1.518,2.153l-.388.247Zm-21.005,5.013-.459-.035a17.605,17.605,0,0,1,.247-1.906c.035-.247.106-.459.141-.706l.459.106c-.035.212-.106.459-.141.671a11.327,11.327,0,0,0-.247,1.871Zm22.594-.635a17.688,17.688,0,0,0-.706-2.436l.459-.177c.282.812.53,1.659.741,2.507l-.494.106Zm-22.806,5.366a12.783,12.783,0,0,1-.212-1.624,9.3,9.3,0,0,1-.071-.988l.459-.035a8.654,8.654,0,0,0,.071.953c.035.53.141,1.059.212,1.589l-.459.106Zm23.83-.706h-.459c0-.635-.071-1.271-.106-1.871-.035-.247-.035-.459-.071-.671l.459-.071a4.783,4.783,0,0,1,.071.706,16.337,16.337,0,0,1,.106,1.906ZM117.228,135.5a22.434,22.434,0,0,1-.812-2.471l.459-.141a21.893,21.893,0,0,0,.812,2.436l-.459.177Zm57.05-4.766a3.545,3.545,0,0,0-1.977-.635h-.318l-.035-.459h0a1.183,1.183,0,0,1,.353,0,4.13,4.13,0,0,1,2.224.706l-.247.388Zm-34.773,4.2-.459-.071c.106-.847.177-1.73.212-2.542l.459.035a22.349,22.349,0,0,1-.212,2.577Zm28.913-2.259-.388-.247a8.207,8.207,0,0,1,1.8-1.942l.282.388a8.985,8.985,0,0,0-1.695,1.8Zm-49.106,7.131c-.424-.777-.847-1.553-1.2-2.295l.424-.212c.353.741.777,1.518,1.2,2.259l-.424.247Zm57.4-5.366a5.643,5.643,0,0,0-.177-.741,4.933,4.933,0,0,0-.777-1.553l.388-.282a5.864,5.864,0,0,1,.847,1.695,5.645,5.645,0,0,1,.177.741l-.459.141Zm-38.127,5.154-.459-.106c.212-.847.424-1.695.565-2.507l.459.106c-.141.812-.353,1.659-.565,2.507Zm28.772-2.471H166.9a9.994,9.994,0,0,1,.318-2.612l.459.106a9.185,9.185,0,0,0-.318,2.507Zm-45.4,6.637c-.53-.706-1.024-1.412-1.518-2.118l.388-.247c.459.706.953,1.412,1.483,2.083l-.353.282Zm55.214-4.625-.459-.071a10.171,10.171,0,0,0,.212-2.506h.459a13.125,13.125,0,0,1-.212,2.577ZM137.1,144.149l-.424-.177a24.68,24.68,0,0,0,.847-2.436l.459.141c-.282.883-.565,1.695-.883,2.471Zm30.5-2.295a23.619,23.619,0,0,1-.565-2.542l.459-.071a16.949,16.949,0,0,0,.565,2.507l-.459.106Zm-42.5,5.507c-.6-.6-1.2-1.271-1.765-1.906l.353-.318c.565.635,1.13,1.271,1.73,1.871l-.318.353Zm50.519-3.672-.424-.212c.388-.812.706-1.589.988-2.365l.459.141c-.318.777-.635,1.624-1.024,2.436Zm-40.846,4.625-.388-.282c.494-.706.953-1.412,1.377-2.153l.424.247c-.424.741-.918,1.483-1.412,2.189Zm34.738-2.083a14.357,14.357,0,0,1-1.165-2.33l.424-.177a15.583,15.583,0,0,0,1.165,2.295l-.424.212Zm-40.881,4.307c-.671-.53-1.342-1.094-1.977-1.695l.318-.353c.635.565,1.306,1.13,1.977,1.659l-.318.388Zm-52.178,6.319c-.741-.459-1.447-.953-2.153-1.447l.282-.388c.706.494,1.412.988,2.153,1.412l-.282.424Zm96.659-9.108-.388-.282a20.5,20.5,0,0,0,1.412-2.153l.424.247a21.3,21.3,0,0,1-1.447,2.189Zm-41.41,4.236-.353-.318a22.175,22.175,0,0,0,1.73-1.906l.353.318c-.53.635-1.094,1.271-1.73,1.906Zm.847,1.271c-.741-.459-1.483-.918-2.189-1.412l.282-.388c.706.494,1.412.953,2.153,1.412l-.247.388Zm39.963-3.283a13.271,13.271,0,0,1-1.765-1.942l.388-.282a17.515,17.515,0,0,0,1.73,1.871l-.353.353Zm-91.858,9.179c-.777-.388-1.553-.777-2.295-1.2l.247-.424c.741.424,1.518.812,2.295,1.2l-.247.424Zm111.24-10.45-.318-.353a17.512,17.512,0,0,0,1.73-1.871l.353.282a23.585,23.585,0,0,1-1.765,1.942Zm-63.792,6.39-.282-.388c.706-.53,1.377-1.059,2.012-1.624l.318.353a22.171,22.171,0,0,1-2.048,1.659Zm41.94-3.672-.353-.318c.6-.6,1.165-1.271,1.73-1.906l.353.318c-.53.635-1.13,1.271-1.73,1.906Zm-33.255,4.025c-.812-.353-1.589-.741-2.365-1.13l.212-.424a23.536,23.536,0,0,0,2.33,1.094l-.177.459Zm-51.754,5.543q-1.218-.424-2.436-.953l.177-.424c.777.318,1.589.635,2.4.918l-.141.459Zm39.045-3.283-.247-.424c.741-.424,1.483-.883,2.189-1.342l.247.388a19.2,19.2,0,0,1-2.189,1.377Zm52.5-5.154a12.135,12.135,0,0,1-2.33-1.2l.247-.388a13.674,13.674,0,0,0,2.259,1.165l-.177.424Zm11.438-1.024-.212-.424a15.8,15.8,0,0,0,2.153-1.377l.282.388a25.882,25.882,0,0,1-2.224,1.412Zm-21.605,3-.282-.388a22.118,22.118,0,0,0,2.012-1.589l.318.353a15.33,15.33,0,0,1-2.048,1.624ZM141.27,157.07c-.847-.247-1.659-.53-2.471-.812l.176-.459c.812.282,1.624.565,2.436.812l-.141.459Zm-51.648,5.26c-.847-.212-1.695-.424-2.507-.671l.141-.459c.812.247,1.659.459,2.471.671l-.106.459Zm93.871-9.214-.071-.459a15.658,15.658,0,0,0,2.436-.671l.176.459a16.9,16.9,0,0,1-2.542.671Zm-2.189.247a10.742,10.742,0,0,1-2.612-.212l.071-.459a14.817,14.817,0,0,0,2.542.212v.459Zm-61.5,6.425-.177-.424c.812-.318,1.589-.706,2.33-1.059l.212.424c-.777.353-1.553.706-2.365,1.059Zm-25.489,3.389-.741-.106c-.6-.071-1.236-.177-1.836-.282l.071-.459c.6.106,1.2.212,1.8.282l.741.106-.035.459Zm51.613-5.048q-1.271-.212-2.542-.53l.106-.459c.847.212,1.695.353,2.507.494l-.071.494Zm-30.608,3.248-.141-.459c.812-.247,1.659-.53,2.436-.812l.177.459c-.812.282-1.659.565-2.471.812Zm46.882-4.589-.177-.424a17.571,17.571,0,0,0,2.33-1.094l.212.424c-.777.388-1.553.741-2.365,1.094ZM99.047,163.53c-.883-.035-1.73-.071-2.612-.141l.035-.459c.847.071,1.695.106,2.577.141v.459Zm11.65-.988-.106-.459c.847-.176,1.695-.353,2.507-.565l.106.459c-.812.177-1.659.388-2.507.565Zm40-3.919c-.847-.035-1.73-.106-2.612-.177l.035-.459c.847.106,1.73.141,2.577.177v.459Zm-46.882,4.8c-.847.071-1.73.106-2.612.106v-.459c.847,0,1.73-.035,2.577-.106l.035.459Zm2.153-.177-.035-.459c.847-.106,1.695-.212,2.542-.353l.071.459c-.847.141-1.695.282-2.577.353Zm51.648-5.154-.106-.459c.847-.177,1.695-.353,2.507-.6l.141.459a22.076,22.076,0,0,1-2.542.6Zm-2.577.388c-.706.071-1.447.106-2.189.141v-.459c.706-.035,1.447-.071,2.153-.141.141,0,.282-.035.424-.035l.071.459a1.864,1.864,0,0,0-.459.035Z" transform="translate(-12.487)" fill="#6d6e70"/>
    <path id="Path_113" data-name="Path 113" d="M66.552,208.881a2.047,2.047,0,1,1,2.895,0,2.025,2.025,0,0,1-2.895,0Zm4.413-4.413a4.219,4.219,0,0,0-5.931,0c-1.624,1.624-1.377,4.06,0,5.931.741,1.024,2.824,4.7,2.824,4.7s2.189-3.495,3.107-4.7c1.412-1.836,1.624-4.307,0-5.931Z" transform="translate(-5.763 -57.742)" fill="#178017"/>
    <path id="Path_114" data-name="Path 114" d="M234.936,315.3l1.624-1.8h.6l-4.448,4.942a3.058,3.058,0,0,0-.565.777c-.071.177-.035.247.106.247a2,2,0,0,0,1.094-.353,3.722,3.722,0,0,0,.953-.847,1.483,1.483,0,0,0,.388-.741c0-.247.071-.388.212-.388.071,0,.071.035.071.071a1.963,1.963,0,0,1-.6,1.13,1.294,1.294,0,0,0,.565-.071,1.562,1.562,0,0,0,.494-.424v.106a1.119,1.119,0,0,1-.494.388,1.694,1.694,0,0,1-.635.035,3.719,3.719,0,0,1-1.059.847,2.355,2.355,0,0,1-.988.282c-.212,0-.318-.106-.318-.282a1,1,0,0,1,.141-.53,6.245,6.245,0,0,1,.424-.671c.035-.071.141-.177.247-.318a5.884,5.884,0,0,1,.494-.53c.212-.247.388-.459.565-.635.177-.212.247-.282.282-.318l-2.189,1.871v-.106l.212-.212c.424-.353.777-.671,1.024-.918.282-.247.565-.494.883-.777s.53-.494.671-.6c.071.035.177-.071.247-.177Zm.988,4.907a24.253,24.253,0,0,0-2.471,1.447c-.671.494-1.024.918-1.024,1.236a.5.5,0,0,0,.071.212.259.259,0,0,0,.212.071,1.051,1.051,0,0,0,.53-.177,2.725,2.725,0,0,0,.671-.53c.247-.247.53-.565.883-.953.176-.212.388-.459.6-.706a3.324,3.324,0,0,0,.53-.6Zm-1.059-2.012v-.106a10.6,10.6,0,0,1,.918-.741,1.032,1.032,0,0,1,.6-.247c.141,0,.212.106.212.282a2.075,2.075,0,0,1-.812,1.341c-.388.353-.6.565-.6.706,0,.071.035.106.141.106a2.044,2.044,0,0,0,.883-.424,14.143,14.143,0,0,0,1.306-.988q.688-.583,1.059-.953h.53l-2.224,2.507a7.912,7.912,0,0,0,1.342-.671,15.937,15.937,0,0,0,1.412-1.094v.106a14.112,14.112,0,0,1-1.377,1.13,8.71,8.71,0,0,1-1.518.741l-.141.141a33.506,33.506,0,0,1-2.33,2.436,2.5,2.5,0,0,1-1.483.847c-.282,0-.424-.141-.424-.388a1.483,1.483,0,0,1,.388-.741,8.107,8.107,0,0,1,1.2-.988,15.422,15.422,0,0,1,2.083-1.13c.459-.565,1.024-1.271,1.765-2.048q-.741.583-.953.741c-.141.106-.353.247-.565.388a5.135,5.135,0,0,1-.565.318,1.218,1.218,0,0,1-.459.106.27.27,0,0,1-.177-.071.3.3,0,0,1-.071-.212.94.94,0,0,1,.106-.424,1.477,1.477,0,0,1,.282-.424c.141-.141.318-.282.53-.459.388-.282.6-.53.6-.671a.129.129,0,0,0-.141-.141,1.255,1.255,0,0,0-.6.282c-.282.212-.565.459-.918.741Z" transform="translate(-114.449 -129.071)" fill="#231f20"/>
  </g>
</svg>
